<?xml version="1.0" encoding="UTF-8" standalone="no"?>
<svg
   xmlns:dc="http://purl.org/dc/elements/1.1/"
   xmlns:cc="http://creativecommons.org/ns#"
   xmlns:rdf="http://www.w3.org/1999/02/22-rdf-syntax-ns#"
   xmlns:svg="http://www.w3.org/2000/svg"
   xmlns="http://www.w3.org/2000/svg"
   viewBox="0 0 816 1056"
   height="1056"
   width="816"
   xml:space="preserve"
   id="svg2"
   version="1.1"><metadata
     id="metadata8"><rdf:RDF><cc:Work
         rdf:about=""><dc:format>image/svg+xml</dc:format><dc:type
           rdf:resource="http://purl.org/dc/dcmitype/StillImage" /></cc:Work></rdf:RDF></metadata><defs
     id="defs6"><clipPath
       id="clipPath20"
       clipPathUnits="userSpaceOnUse"><path
         id="path18"
         d="m 139,632 h 401 v 88 H 139 Z" /></clipPath><clipPath
       id="clipPath102"
       clipPathUnits="userSpaceOnUse"><path
         id="path100"
         d="m 139,632 h 401 v 88 H 139 Z" /></clipPath><clipPath
       id="clipPath116"
       clipPathUnits="userSpaceOnUse"><path
         id="path114"
         d="m 139,632 h 401 v 88 H 139 Z" /></clipPath><clipPath
       id="clipPath126"
       clipPathUnits="userSpaceOnUse"><path
         id="path124"
         d="m 139,632 h 401 v 88 H 139 Z" /></clipPath><clipPath
       id="clipPath170"
       clipPathUnits="userSpaceOnUse"><path
         id="path168"
         d="m 139,632 h 401 v 88 H 139 Z" /></clipPath><clipPath
       id="clipPath180"
       clipPathUnits="userSpaceOnUse"><path
         id="path178"
         d="m 139,632 h 401 v 88 H 139 Z" /></clipPath><clipPath
       id="clipPath220"
       clipPathUnits="userSpaceOnUse"><path
         id="path218"
         d="m 139,632 h 401 v 88 H 139 Z" /></clipPath></defs><g
     transform="matrix(1.3333333,0,0,-1.3333333,0,1056)"
     id="g10"><g
       id="g12" /><g
       id="g14"><g
         clip-path="url(#clipPath20)"
         id="g16"><g
           transform="matrix(0.24,0,0,0.24,12,589.92)"
           id="g22"><text
             id="text26"
             style="font-variant:normal;font-weight:300;font-size:33px;font-family:Calibri;-inkscape-font-specification:Calibri-Light;writing-mode:lr-tb;fill:#000000;fill-opacity:1;fill-rule:nonzero;stroke:none"
             transform="matrix(1,0,0,-1,552.9999,510)"><tspan
               id="tspan24"
               y="0"
               x="0 20.2323 36.702599 51.357899 67.828201 75.190498 92.584801 109.9131 126.7794 142.4577 159.786 176.6523 184.0146 201.3429 212.3022 228.77251 240.2598 255.9381 270.09839 281.05771 288.42001 303.07529 319.54559 336.4119 347.37119 364.69949 375.65881 393.0531 404.54041 421.40671 447.77701 465.1713 482.4996 498.96991 510.45721 526.1355 537.09479 553.56512 570.89337 587.7597 601.91998 619.24829 634.92657 645.88593 662.7522 675.65851 690.3468 703.25311 714.2124 730.68268 757.05298 773.91931 783.88861 801.2829 812.7702 829.63647 845.31482 862.64313 873.60242 890.9967 917.367 933.04529 944.00458 960.47491 977.80322 994.66949 1010.3478 1027.6761 1043.3544 1050.7167 1065.405 1078.3113 1085.6736 1098.58 1115.4462 1131.1245 1148.4528 1165.7811 1182.6475 1199.9757 1214.6639 1231.9923 1247.6707 1274.0409 1281.4032 1295.5635 1312.4298 1325.3361 1342.6644 1359.9927 1377.321 1394.7153 1406.2026 1417.1619 1434.0282 1443.9976 1461.3918 1472.8792 1489.7454 1505.4237 1522.752 1539.6183 1557.0126 1574.3409 1581.7032 1589.0656 1606.3938 1622.8641">Develop an interactive tutor moderated chat system for automated analysis and dynamic support for an online </tspan></text>
</g><g
           transform="matrix(0.24,0,0,0.24,12,589.92)"
           id="g28"><text
             id="text32"
             style="font-variant:normal;font-weight:300;font-size:33px;font-family:Calibri;-inkscape-font-specification:Calibri-Light;writing-mode:lr-tb;fill:#000000;fill-opacity:1;fill-rule:nonzero;stroke:none"
             transform="matrix(1,0,0,-1,552.9999,470)"><tspan
               id="tspan30"
               y="0"
               x="0 14.1768 31.5546 38.900398 46.246201 61.941002 79.2528 96.6306 108.1344 123.8292 134.772 142.1178 156.7896 173.2764 189.7632 197.10899 213.59579 229.2906 240.7944 258.1062 265.452 282.76379 298.39261 314.87939 332.19119 343.69501 361.07281 375.2496 391.73639 404.62619 417.51599 425.6868 442.17361 459.08939 470.5932 487.97101 505.28281 522.66058 535.55042 552.03717 569.349 585.83582 601.53058 618.84241 636.15417 652.64099 659.98682 686.34058 703.6524 710.99823 727.48499 753.83881 770.32562 787.63739 798.5802 815.06702 832.37878 848.8656">collaborative learning process. Proposed and implemented 2</tspan></text>
</g><g
           transform="matrix(0.24,0,0,0.24,12,589.92)"
           id="g34"><text
             id="text38"
             style="font-variant:normal;font-weight:300;font-size:33px;font-family:Calibri;-inkscape-font-specification:Calibri-Light;writing-mode:lr-tb;fill:#000000;fill-opacity:1;fill-rule:nonzero;stroke:none"
             transform="matrix(1,0,0,-1,1418.707,470)"><tspan
               id="tspan36"
               y="0"
               x="0">-</tspan></text>
</g><g
           transform="matrix(0.24,0,0,0.24,12,589.92)"
           id="g40"><text
             id="text44"
             style="font-variant:normal;font-weight:300;font-size:33px;font-family:Calibri;-inkscape-font-specification:Calibri-Light;writing-mode:lr-tb;fill:#000000;fill-opacity:1;fill-rule:nonzero;stroke:none"
             transform="matrix(1,0,0,-1,1428.912,470)"><tspan
               id="tspan42"
               y="0"
               x="0 17.318399 33.019798 45.916199 58.812599 75.273003 90.974403 102.4518 116.6352 133.9536 141.306 152.2554 168.71581 182.8992 193.8486 211.16701 222.64439 239.1048 255.5652 281.9256 299.31 316.62839 333.08881 340.44119 356.90161 366.86099 384.24539 395.72281 412.1832 438.54361 455.92801 473.2464 489.70679 497.0592 504.41159 511.76401 529.0824 544.71777 561.17822 572.12762 589.44598 605.90637 622.36682 635.26318 646.21259 663.53101 680.84943 697.30981 714.62817 725.57758 738.474 746.61841">pass architecture model for modelling the students’ </tspan></text>
</g><g
           transform="matrix(0.24,0,0,0.24,12,589.92)"
           id="g46"><text
             id="text50"
             style="font-variant:normal;font-weight:300;font-size:33px;font-family:Calibri;-inkscape-font-specification:Calibri-Light;writing-mode:lr-tb;fill:#000000;fill-opacity:1;fill-rule:nonzero;stroke:none"
             transform="matrix(1,0,0,-1,552.9999,429)"><tspan
               id="tspan48"
               y="0"
               x="0 14.1768 31.5546 48.866402 63.5382 80.025002 91.528801 104.4186 120.1134 131.0562 138.40199 155.7798 173.0916 183.40739 199.1022 216.414 233.7258 244.0416 261.35339 278.66519 286.01099 293.35681 310.66861 318.0144 335.3262 350.95499 361.27081 376.96561 394.2774 404.5932 420.28799 435.91681 452.40359 469.71539 480.6582 490.974 508.2858">conversation and building an agent pr</tspan></text>
</g><g
           transform="matrix(0.24,0,0,0.24,12,589.92)"
           id="g52"><text
             id="text56"
             style="font-variant:normal;font-weight:300;font-size:33px;font-family:Calibri;-inkscape-font-specification:Calibri-Light;writing-mode:lr-tb;fill:#000000;fill-opacity:1;fill-rule:nonzero;stroke:none"
             transform="matrix(1,0,0,-1,1072.828,429)"><tspan
               id="tspan54"
               y="0"
               x="0 17.384399 28.333799 45.718201 56.667599 71.378998 88.697403 105.1578 115.4802 129.6636 145.36501 162.6834 178.3848 195.7032 203.0556 219.51601 229.83839 247.22279 257.18219 267.50461 284.823 301.28339 312.23279 328.69321 342.87659 353.82599 361.17841 378.4968 394.1322 404.45459 421.77301 429.1254 442.02179 452.97119 464.44861 480.14999 494.3334 505.28281 512.63519 530.01959 547.33801 559.40942 569.73181 583.91522 601.29962 618.61798 628.57739 645.89581 658.79218 666.14459 683.52899 700.84741 711.1698 726.87122 753.23163 770.61603 787.93439 803.56982 813.89221 826.78857 837.73798 855.0564 872.37482 888.83521 906.15363 917.10303 929.99939 940.32178 956.02319 973.34161 990.65997 1000.9824 1018.3008 1029.7782 1047.1626 1061.8409 1069.1934 1086.5118 1102.9722">ototype capable of detecting distraction/ confusion among students and provide </tspan></text>
</g><g
           transform="matrix(0.24,0,0,0.24,12,589.92)"
           id="g58"><text
             id="text62"
             style="font-variant:normal;font-weight:300;font-size:33px;font-family:Calibri;-inkscape-font-specification:Calibri-Light;writing-mode:lr-tb;fill:#000000;fill-opacity:1;fill-rule:nonzero;stroke:none"
             transform="matrix(1,0,0,-1,552.9999,388)"><tspan
               id="tspan60"
               y="0"
               x="0 17.318399 33.778801 47.9622 64.4226 77.319 90.215401 105.9168 117.3942 132.10561 139.65601 152.5524 169.8708 187.18919 204.5076 221.892 233.3694 244.3188 251.8692 262.8186 280.203 287.75339 304.21381 321.5322 334.42859 351.74701 363.2244 379.68481 387.2352 403.69559 413.655 423.61441 440.0748 454.25821 465.20761 472.56 487.2384 503.69879 511.24921 518.60162 535.06201 550.76343 562.24078 579.5592 586.91162 604.22998 619.86542">necessary support to ensure effective learning.</tspan></text>
</g><g
           transform="matrix(0.24,0,0,0.24,12,589.92)"
           id="g64" /><g
           transform="matrix(0.24,0,0,0.24,12,589.92)"
           id="g66" /><g
           transform="matrix(0.24,0,0,0.24,12,589.92)"
           id="g68"><text
             id="text72"
             style="font-variant:normal;font-weight:bold;font-size:42px;font-family:TimesNewRomanPS;-inkscape-font-specification:TimesNewRomanPS-BoldMT;writing-mode:lr-tb;fill:#000000;fill-opacity:1;fill-rule:nonzero;stroke:none"
             transform="matrix(1,0,0,-1,552.9999,320)"><tspan
               id="tspan70"
               y="0"
               x="0 23.1714 46.3428 81.064201 115.7856 134.295 152.8044 163.20779 193.3092 216.48061 239.65199 258.16141 276.67081 297.4902 315.9996 336.819 359.99039 383.1618 403.9812 417.87061 436.38 446.78339 476.8848 495.3942 511.5936 530.10303 550.92242 569.43182 587.94122 611.11261 621.51599 653.92743 672.43683 693.25623 716.42761 730.31702 740.7204 754.6098 775.4292 793.9386 804.34198 832.13342 852.95282 871.46222 889.97162 901.55103 913.13037 931.63977 954.81122 973.32062 991.83002">Summer Undergraduate Research Grant for Excellence </tspan></text>
</g><g
           transform="matrix(0.24,0,0,0.24,12,589.92)"
           id="g74" /><g
           transform="matrix(0.24,0,0,0.24,12,589.92)"
           id="g76"><text
             id="text80"
             style="font-variant:normal;font-weight:normal;font-size:42px;font-family:TimesNewRomanPSMT;-inkscape-font-specification:TimesNewRomanPSMT;writing-mode:lr-tb;fill:#000000;fill-opacity:1;fill-rule:nonzero;stroke:none"
             transform="matrix(1,0,0,-1,1919.658,320)"><tspan
               id="tspan78"
               y="0"
               x="0 37.048199 55.532398">May</tspan></text>
</g><g
           transform="matrix(0.24,0,0,0.24,12,589.92)"
           id="g82"><text
             id="text86"
             style="font-variant:normal;font-weight:normal;font-size:42px;font-family:TimesNewRomanPSMT;-inkscape-font-specification:TimesNewRomanPSMT;writing-mode:lr-tb;fill:#000000;fill-opacity:1;fill-rule:nonzero;stroke:none"
             transform="matrix(1,0,0,-1,1996.034,320)"><tspan
               id="tspan84"
               y="0"
               x="0">-</tspan></text>
</g><g
           transform="matrix(0.24,0,0,0.24,12,589.92)"
           id="g88"><text
             id="text92"
             style="font-variant:normal;font-weight:normal;font-size:42px;font-family:TimesNewRomanPSMT;-inkscape-font-specification:TimesNewRomanPSMT;writing-mode:lr-tb;fill:#000000;fill-opacity:1;fill-rule:nonzero;stroke:none"
             transform="matrix(1,0,0,-1,2009.909,320)"><tspan
               id="tspan90"
               y="0"
               x="0 16.2162 37.052399 48.648602">July</tspan></text>
</g><g
           transform="matrix(0.24,0,0,0.24,12,589.92)"
           id="g94" /></g></g><g
       id="g96"><g
         clip-path="url(#clipPath102)"
         id="g98"><g
           transform="matrix(0.24,0,0,0.24,12,589.92)"
           id="g104"><text
             id="text108"
             style="font-variant:normal;font-weight:normal;font-size:42px;font-family:TimesNewRomanPSMT;-inkscape-font-specification:TimesNewRomanPSMT;writing-mode:lr-tb;fill:#000000;fill-opacity:1;fill-rule:nonzero;stroke:none"
             transform="matrix(1,0,0,-1,2089.784,320)"><tspan
               id="tspan106"
               y="0"
               x="0 20.832001 41.664001 62.495998 83.328003">2012 </tspan></text>
</g></g></g><g
       id="g110"><g
         clip-path="url(#clipPath116)"
         id="g112"><g
           transform="matrix(0.24,0,0,0.24,12,589.92)"
           id="g118" /></g></g><g
       id="g120"><g
         clip-path="url(#clipPath126)"
         id="g122"><g
           transform="matrix(0.24,0,0,0.24,12,589.92)"
           id="g128"><text
             id="text132"
             style="font-style:italic;font-variant:normal;font-weight:300;font-size:38px;font-family:Calibri;-inkscape-font-specification:Calibri-LightItalic;writing-mode:lr-tb;fill:#000000;fill-opacity:1;fill-rule:nonzero;stroke:none"
             transform="matrix(1,0,0,-1,552.9999,270)"><tspan
               id="tspan130"
               y="0"
               x="0 21.1318 40.135601 56.365398 64.653198 79.172997 98.138802 110.7966 120.6424 129.12019 148.162 160.81979 179.7856 190.9994 200.16119 208.63901 229.7708 246.3046 265.30841 279.82819 298.832 307.30981 328.44159 347.4454 366.44919 385.453 394.61481">Advisor: Prof. Akash Anan, </tspan></text>
</g><g
           transform="matrix(0.24,0,0,0.24,12,589.92)"
           id="g134"><text
             id="text138"
             style="font-style:italic;font-variant:normal;font-weight:300;font-size:38px;font-family:Calibri;-inkscape-font-specification:Calibri-LightItalic;writing-mode:lr-tb;fill:#000000;fill-opacity:1;fill-rule:nonzero;stroke:none"
             transform="matrix(1,0,0,-1,956.1066,270)"><tspan
               id="tspan136"
               y="0"
               x="0 22.7582 40.386398 59.382599 78.378799 91.067001 103.3752 132.7834 150.41161">Departmen</tspan></text>
</g><g
           transform="matrix(0.24,0,0,0.24,12,589.92)"
           id="g140"><text
             id="text144"
             style="font-style:italic;font-variant:normal;font-weight:300;font-size:38px;font-family:Calibri;-inkscape-font-specification:Calibri-LightItalic;writing-mode:lr-tb;fill:#000000;fill-opacity:1;fill-rule:nonzero;stroke:none"
             transform="matrix(1,0,0,-1,1125.516,270)"><tspan
               id="tspan142"
               y="0"
               x="0 12.3234 20.8088 39.7822 51.003601 59.488998 91.154404 110.1658 122.4892 141.5006 159.106 188.5294 207.5408 219.8642 228.15961 243.86501 258.3544 266.83981 285.8512 304.86261 323.87399 332.35941 349.0528 361.37619 380.3876 392.711 401.00641 415.49579 427.81921 436.11459 451.82001">t of Mathematics and Statistics</tspan></text>
</g><g
           transform="matrix(0.24,0,0,0.24,12,589.92)"
           id="g146" /><g
           transform="matrix(0.24,0,0,0.24,12,589.92)"
           id="g148" /><g
           transform="matrix(0.24,0,0,0.24,12,589.92)"
           id="g150"><text
             id="text154"
             style="font-style:italic;font-variant:normal;font-weight:300;font-size:38px;font-family:Calibri;-inkscape-font-specification:Calibri-LightItalic;writing-mode:lr-tb;fill:#000000;fill-opacity:1;fill-rule:nonzero;stroke:none"
             transform="matrix(1,0,0,-1,1930.814,270)"><tspan
               id="tspan152"
               y="0"
               x="0 9.1541996 18.308399 36.430599 44.900799 63.820999 82.8172 101.8134 120.8096 139.8058">IIT Kanpur</tspan></text>
</g><g
           transform="matrix(0.24,0,0,0.24,12,589.92)"
           id="g156"><text
             id="text160"
             style="font-style:italic;font-variant:normal;font-weight:300;font-size:38px;font-family:Calibri;-inkscape-font-specification:Calibri-LightItalic;writing-mode:lr-tb;fill:#000000;fill-opacity:1;fill-rule:nonzero;stroke:none"
             transform="matrix(1,0,0,-1,2083.341,270)"><tspan
               id="tspan158"
               y="0"
               x="0 9.1731997 17.662399 26.8356 45.8508 64.865997 73.127197">, India</tspan></text>
</g><g
           transform="matrix(0.24,0,0,0.24,12,589.92)"
           id="g162" /></g></g><g
       id="g164"><g
         clip-path="url(#clipPath170)"
         id="g166"><g
           transform="matrix(0.24,0,0,0.24,12,589.92)"
           id="g172" /></g></g><g
       id="g174"><g
         clip-path="url(#clipPath180)"
         id="g176"><g
           transform="matrix(0.24,0,0,0.24,12,589.92)"
           id="g182"><text
             id="text186"
             style="font-variant:normal;font-weight:300;font-size:33px;font-family:Calibri;-inkscape-font-specification:Calibri-Light;writing-mode:lr-tb;fill:#000000;fill-opacity:1;fill-rule:nonzero;stroke:none"
             transform="matrix(1,0,0,-1,552.9999,229)"><tspan
               id="tspan184"
               y="0"
               x="0 20.2323 36.702599 51.357899 67.828201 75.190498 92.584801 109.9131 126.3834 143.7117 151.239 167.7093 177.6786 187.6479 195.01019 209.1705 216.53281 233.0031 250.33141 261.29071 268.81799 284.49631 291.85861 307.47089 324.8652 336.35251 343.71481 354.6741 372.00241 398.37271 411.27899 418.8063 428.7756 446.16989 457.6572 465.18451 482.51279 494.00009 511.39441 519.05371 535.52399 549.68433 560.64362 568.00592 585.33423 600.94647 608.47382 619.43311 636.76141 653.23169 660.75897 678.08728 695.48163 702.84387 720.17218 731.13147 738.65881 752.81909 760.1814 777.57568 794.90399 812.2323 819.75958 837.15387 854.48218 862.00952 872.96881 890.29712 906.7674 914.29468 931.62299 943.11029 960.50458 968.16388 984.63422 998.79449 1009.7538 1017.1161 1034.5104 1051.8387 1059.366 1072.2723 1089.6006 1101.0879 1111.0573 1126.7355 1140.8958 1157.3661">Developed efficient algorithms for projecting the point cloud on the projection surface.</tspan></text>
</g><g
           transform="matrix(0.24,0,0,0.24,12,589.92)"
           id="g188" /><g
           transform="matrix(0.24,0,0,0.24,12,589.92)"
           id="g190"><text
             id="text194"
             style="font-variant:normal;font-weight:300;font-size:33px;font-family:Calibri;-inkscape-font-specification:Calibri-Light;writing-mode:lr-tb;fill:#000000;fill-opacity:1;fill-rule:nonzero;stroke:none"
             transform="matrix(1,0,0,-1,1725.9,229)"><tspan
               id="tspan192"
               y="0"
               x="0 18.7836 36.1152 47.077801 64.475403 90.848999 106.5306 117.4932 133.9668 151.2984 158.82899 169.7916 187.1232 203.5968 211.1274 228.459 239.9496 257.3472 271.5108 287.98441 300.86099 313.73761 321.26819 338.6658 348.6384 356.16901">Automated the process of 3</tspan></text>
</g><g
           transform="matrix(0.24,0,0,0.24,12,589.92)"
           id="g196"><text
             id="text200"
             style="font-variant:normal;font-weight:300;font-size:33px;font-family:Calibri;-inkscape-font-specification:Calibri-Light;writing-mode:lr-tb;fill:#000000;fill-opacity:1;fill-rule:nonzero;stroke:none"
             transform="matrix(1,0,0,-1,2098.882,229)"><tspan
               id="tspan198"
               y="0"
               x="0">-</tspan></text>
</g><g
           transform="matrix(0.24,0,0,0.24,12,589.92)"
           id="g202"><text
             id="text206"
             style="font-variant:normal;font-weight:300;font-size:33px;font-family:Calibri;-inkscape-font-specification:Calibri-Light;writing-mode:lr-tb;fill:#000000;fill-opacity:1;fill-rule:nonzero;stroke:none"
             transform="matrix(1,0,0,-1,2109.087,229)"><tspan
               id="tspan204"
               y="0"
               x="0 20.2323">D </tspan></text>
</g><g
           transform="matrix(0.24,0,0,0.24,12,589.92)"
           id="g208"><text
             id="text212"
             style="font-variant:normal;font-weight:300;font-size:33px;font-family:Calibri;-inkscape-font-specification:Calibri-Light;writing-mode:lr-tb;fill:#000000;fill-opacity:1;fill-rule:nonzero;stroke:none"
             transform="matrix(1,0,0,-1,552.9999,188)"><tspan
               id="tspan210"
               y="0"
               x="0 12.8898 30.201599 41.705399 51.658199 67.352997 81.5298 97.983597 105.5274 121.1562 137.61 154.9218 171.3756 182.87939 198.5742 209.517 216.86279 234.2406 251.5524">surface generation.</tspan></text>
</g></g></g><g
       id="g214"><g
         clip-path="url(#clipPath220)"
         id="g216"><g
           transform="matrix(0.24,0,0,0.24,12,589.92)"
           id="g222" /></g></g><g
       id="g224"><g
         transform="matrix(0.24,0,0,0.24,12,589.92)"
         id="g226" /></g></g></svg>